<?xml version="1.0" encoding="utf-8" standalone="no"?>
<!DOCTYPE svg PUBLIC "-//W3C//DTD SVG 1.1//EN"
  "http://www.w3.org/Graphics/SVG/1.1/DTD/svg11.dtd">
<!-- Created with matplotlib (http://matplotlib.org/) -->
<svg height="288pt" version="1.1" viewBox="0 0 432 288" width="432pt" xmlns="http://www.w3.org/2000/svg" xmlns:xlink="http://www.w3.org/1999/xlink">
 <defs>
  <style type="text/css">
*{stroke-linecap:butt;stroke-linejoin:round;}
  </style>
 </defs>
 <g id="figure_1">
  <g id="patch_1">
   <path d="
M0 288
L432 288
L432 0
L0 0
z
" style="fill:#ffffff;"/>
  </g>
  <g id="axes_1">
   <g id="patch_2">
    <path d="
M54 252
L388.8 252
L388.8 28.8
L54 28.8
z
" style="fill:#ffffff;"/>
   </g>
   <g id="line2d_1">
    <path clip-path="url(#p124b8dd147)" d="
M375.408 140.4
L362.016 140.4
L348.624 140.4
L335.232 140.4
L321.84 140.4
L308.448 140.4
L295.056 140.4
L281.664 140.4
L268.272 140.4
L254.88 140.4
L241.488 140.4
L228.096 140.4
L214.704 140.4
L201.312 140.4
L187.92 140.4
L174.528 140.4
L161.136 140.4
L147.744 140.4
L134.352 140.4
L120.96 140.4
L107.568 140.4
L94.176 140.4
L80.784 140.4
L67.392 140.4" style="fill:none;stroke:#90ee90;stroke-linecap:square;stroke-width:3;"/>
   </g>
   <g id="patch_3">
    <path d="
M54 252
L388.8 252" style="fill:none;stroke:#000000;stroke-linecap:square;stroke-linejoin:miter;stroke-width:2.0;"/>
   </g>
   <g id="patch_4">
    <path d="
M54 252
L54 28.8" style="fill:none;stroke:#000000;stroke-linecap:square;stroke-linejoin:miter;stroke-width:2.0;"/>
   </g>
   <g id="matplotlib.axis_1">
    <g id="xtick_1">
     <g id="line2d_2">
      <defs>
       <path d="
M0 0
L0 -4" id="m93b0483c22" style="stroke:#000000;stroke-width:0.5;"/>
      </defs>
      <g>
       <use style="stroke:#000000;stroke-width:0.5;" x="54.0" xlink:href="#m93b0483c22" y="252.0"/>
      </g>
     </g>
     <g id="text_1">
      <!-- 0 -->
      <defs>
       <path d="
M31.7812 3.42188
Q39.2656 3.42188 42.9688 11.625
Q46.6875 19.8281 46.6875 36.375
Q46.6875 52.9844 42.9688 61.1875
Q39.2656 69.3906 31.7812 69.3906
Q24.3125 69.3906 20.5938 61.1875
Q16.8906 52.9844 16.8906 36.375
Q16.8906 19.8281 20.5938 11.625
Q24.3125 3.42188 31.7812 3.42188
M31.7812 -1.42188
Q19.9219 -1.42188 13.25 8.53125
Q6.59375 18.5 6.59375 36.375
Q6.59375 54.2969 13.25 64.25
Q19.9219 74.2188 31.7812 74.2188
Q43.7031 74.2188 50.3438 64.25
Q56.9844 54.2969 56.9844 36.375
Q56.9844 18.5 50.3438 8.53125
Q43.7031 -1.42188 31.7812 -1.42188" id="BitstreamVeraSerif-Roman-30"/>
      </defs>
      <g transform="translate(47.953125 274.23625)scale(0.24 -0.24)">
       <use xlink:href="#BitstreamVeraSerif-Roman-30"/>
      </g>
     </g>
    </g>
    <g id="xtick_2">
     <g id="line2d_3">
      <g>
       <use style="stroke:#000000;stroke-width:0.5;" x="120.96" xlink:href="#m93b0483c22" y="252.0"/>
      </g>
     </g>
     <g id="text_2">
      <!-- 1 -->
      <defs>
       <path d="
M14.2031 0
L14.2031 5.17188
L26.9062 5.17188
L26.9062 65.8281
L12.2031 56.2969
L12.2031 62.7031
L29.9844 74.2188
L36.7188 74.2188
L36.7188 5.17188
L49.4219 5.17188
L49.4219 0
z
" id="BitstreamVeraSerif-Roman-31"/>
      </defs>
      <g transform="translate(116.49375 274.23625)scale(0.24 -0.24)">
       <use xlink:href="#BitstreamVeraSerif-Roman-31"/>
      </g>
     </g>
    </g>
    <g id="xtick_3">
     <g id="line2d_4">
      <g>
       <use style="stroke:#000000;stroke-width:0.5;" x="187.92" xlink:href="#m93b0483c22" y="252.0"/>
      </g>
     </g>
     <g id="text_3">
      <!-- 2 -->
      <defs>
       <path d="
M12.7969 55.5156
L7.32812 55.5156
L7.32812 68.5
Q12.5469 71.2969 17.8438 72.75
Q23.1406 74.2188 28.2188 74.2188
Q39.5938 74.2188 46.1875 68.7031
Q52.7812 63.1875 52.7812 53.7188
Q52.7812 43.0156 37.8438 28.125
Q36.6719 27 36.0781 26.4219
L17.6719 8.01562
L48.0938 8.01562
L48.0938 17
L53.8125 17
L53.8125 0
L6.78125 0
L6.78125 5.32812
L28.9062 27.3906
Q36.2344 34.7188 39.3594 40.8438
Q42.4844 46.9688 42.4844 53.7188
Q42.4844 61.0781 38.6406 65.2344
Q34.8125 69.3906 28.0781 69.3906
Q21.0938 69.3906 17.2812 65.9219
Q13.4844 62.4531 12.7969 55.5156" id="BitstreamVeraSerif-Roman-32"/>
      </defs>
      <g transform="translate(182.27625 274.23625)scale(0.24 -0.24)">
       <use xlink:href="#BitstreamVeraSerif-Roman-32"/>
      </g>
     </g>
    </g>
    <g id="xtick_4">
     <g id="line2d_5">
      <g>
       <use style="stroke:#000000;stroke-width:0.5;" x="254.88" xlink:href="#m93b0483c22" y="252.0"/>
      </g>
     </g>
     <g id="text_4">
      <!-- 3 -->
      <defs>
       <path d="
M9.71875 69.8281
Q15.4375 71.9688 20.6719 73.0938
Q25.9219 74.2188 30.5156 74.2188
Q41.2188 74.2188 47.2188 69.5938
Q53.2188 64.9844 53.2188 56.7812
Q53.2188 50.2031 49.0625 45.7812
Q44.9219 41.3594 37.3125 39.7969
Q46.2969 38.5312 51.25 33.2812
Q56.2031 28.0312 56.2031 19.6719
Q56.2031 9.46875 49.3438 4.01562
Q42.4844 -1.42188 29.5938 -1.42188
Q23.875 -1.42188 18.4219 -0.1875
Q12.9844 1.03125 7.625 3.51562
L7.625 17.6719
L13.0938 17.6719
Q13.5781 10.6406 17.8281 7.03125
Q22.0781 3.42188 29.7812 3.42188
Q37.25 3.42188 41.5781 7.73438
Q45.9062 12.0625 45.9062 19.5781
Q45.9062 28.1719 41.4531 32.5938
Q37.0156 37.0156 28.4219 37.0156
L23.7812 37.0156
L23.7812 42
L26.2188 42
Q34.7656 42 39.0312 45.5312
Q43.3125 49.0781 43.3125 56.2031
Q43.3125 62.5938 39.7969 65.9844
Q36.2812 69.3906 29.6875 69.3906
Q23.0938 69.3906 19.4531 66.2656
Q15.8281 63.1406 15.1875 56.9844
L9.71875 56.9844
z
" id="BitstreamVeraSerif-Roman-33"/>
      </defs>
      <g transform="translate(249.050625 274.23625)scale(0.24 -0.24)">
       <use xlink:href="#BitstreamVeraSerif-Roman-33"/>
      </g>
     </g>
    </g>
    <g id="xtick_5">
     <g id="line2d_6">
      <g>
       <use style="stroke:#000000;stroke-width:0.5;" x="321.84" xlink:href="#m93b0483c22" y="252.0"/>
      </g>
     </g>
     <g id="text_5">
      <!-- 4 -->
      <defs>
       <path d="
M34.9062 24.7031
L34.9062 63.4844
L10.0156 24.7031
z

M56.3906 0
L23.1875 0
L23.1875 5.17188
L34.9062 5.17188
L34.9062 19.4844
L3.07812 19.4844
L3.07812 24.8125
L35.0156 74.2188
L44.6719 74.2188
L44.6719 24.7031
L58.5938 24.7031
L58.5938 19.4844
L44.6719 19.4844
L44.6719 5.17188
L56.3906 5.17188
z
" id="BitstreamVeraSerif-Roman-34"/>
      </defs>
      <g transform="translate(315.178125 274.23625)scale(0.24 -0.24)">
       <use xlink:href="#BitstreamVeraSerif-Roman-34"/>
      </g>
     </g>
    </g>
    <g id="xtick_6">
     <g id="line2d_7">
      <g>
       <use style="stroke:#000000;stroke-width:0.5;" x="388.8" xlink:href="#m93b0483c22" y="252.0"/>
      </g>
     </g>
     <g id="text_6">
      <!-- 5 -->
      <defs>
       <path d="
M50.2969 72.9062
L50.2969 64.8906
L16.8906 64.8906
L16.8906 44
Q19.4375 45.75 22.8281 46.625
Q26.2188 47.5156 30.4219 47.5156
Q42.2344 47.5156 49.0625 40.9688
Q55.9062 34.4219 55.9062 23.0938
Q55.9062 11.5312 49 5.04688
Q42.0938 -1.42188 29.5938 -1.42188
Q24.5625 -1.42188 19.2812 -0.1875
Q14.0156 1.03125 8.5 3.51562
L8.5 17.6719
L14.0156 17.6719
Q14.4531 10.75 18.4219 7.07812
Q22.4062 3.42188 29.5938 3.42188
Q37.3125 3.42188 41.4531 8.5
Q45.6094 13.5781 45.6094 23.0938
Q45.6094 32.5625 41.4844 37.6094
Q37.3594 42.6719 29.5938 42.6719
Q25.2031 42.6719 21.8438 41.1094
Q18.5 39.5469 15.9219 36.2812
L11.7188 36.2812
L11.7188 72.9062
z
" id="BitstreamVeraSerif-Roman-35"/>
      </defs>
      <g transform="translate(383.11125 274.23625)scale(0.24 -0.24)">
       <use xlink:href="#BitstreamVeraSerif-Roman-35"/>
      </g>
     </g>
    </g>
    <g id="text_7">
     <!-- Relative concentration of Pab1 -->
     <defs>
      <path d="
M54.2031 25
L15.4844 25
L15.4844 24.6094
Q15.4844 14.1094 19.4375 8.76562
Q23.3906 3.42188 31.1094 3.42188
Q37.0156 3.42188 40.7969 6.51562
Q44.5781 9.625 46.0938 15.7188
L53.3281 15.7188
Q51.1719 7.17188 45.375 2.875
Q39.5938 -1.42188 30.1719 -1.42188
Q18.7969 -1.42188 11.8906 6.07812
Q4.98438 13.5781 4.98438 25.9844
Q4.98438 38.2812 11.7656 45.7969
Q18.5625 53.3281 29.5938 53.3281
Q41.3594 53.3281 47.6562 46.0625
Q53.9531 38.8125 54.2031 25
M43.6094 30.1719
Q43.3125 39.2656 39.7656 43.875
Q36.2344 48.4844 29.5938 48.4844
Q23.3906 48.4844 19.8281 43.8438
Q16.2656 39.2031 15.4844 30.1719
z
" id="BitstreamVeraSerif-Roman-65"/>
      <path d="
M43.0156 63.7188
L38.2812 63.7188
Q38.2344 67.3906 36.2031 69.2812
Q34.1875 71.1875 30.3281 71.1875
Q25.2969 71.1875 23.2344 68.4219
Q21.1875 65.6719 21.1875 58.5938
L21.1875 51.9062
L35.6875 51.9062
L35.6875 46.6875
L21.1875 46.6875
L21.1875 5.17188
L32.7188 5.17188
L32.7188 0
L3.60938 0
L3.60938 5.17188
L12.2031 5.17188
L12.2031 46.6875
L3.60938 46.6875
L3.60938 51.9062
L12.2031 51.9062
L12.2031 58.4062
Q12.2031 67.0938 16.7188 71.5312
Q21.2344 75.9844 29.9844 75.9844
Q33.25 75.9844 36.5156 75.3906
Q39.7969 74.8125 43.0156 73.5781
z
" id="BitstreamVeraSerif-Roman-66"/>
      <path d="
M10.7969 46.6875
L2.875 46.6875
L2.875 51.9062
L10.7969 51.9062
L10.7969 68.0156
L19.8281 68.0156
L19.8281 51.9062
L36.7188 51.9062
L36.7188 46.6875
L19.8281 46.6875
L19.8281 13.7188
Q19.8281 7.125 21.0938 5.26562
Q22.3594 3.42188 25.7812 3.42188
Q29.2969 3.42188 30.9062 5.48438
Q32.5156 7.5625 32.625 12.2031
L39.4062 12.2031
Q39.0156 5.125 35.5469 1.84375
Q32.0781 -1.42188 25 -1.42188
Q17.2344 -1.42188 14.0156 2.01562
Q10.7969 5.46875 10.7969 13.7188
z
" id="BitstreamVeraSerif-Roman-74"/>
      <path d="
M39.7969 16.3125
L39.7969 27.2969
L28.2188 27.2969
Q21.5312 27.2969 18.25 24.4062
Q14.9844 21.5312 14.9844 15.5781
Q14.9844 10.1562 18.2969 6.98438
Q21.625 3.8125 27.2969 3.8125
Q32.9062 3.8125 36.3438 7.28125
Q39.7969 10.75 39.7969 16.3125
M48.7812 32.4219
L48.7812 5.17188
L56.7812 5.17188
L56.7812 0
L39.7969 0
L39.7969 5.60938
Q36.8125 2 32.9062 0.28125
Q29 -1.42188 23.7812 -1.42188
Q15.1406 -1.42188 10.0625 3.17188
Q4.98438 7.76562 4.98438 15.5781
Q4.98438 23.6406 10.7969 28.0781
Q16.6094 32.5156 27.2031 32.5156
L39.7969 32.5156
L39.7969 36.0781
Q39.7969 42 36.2031 45.2344
Q32.625 48.4844 26.125 48.4844
Q20.75 48.4844 17.5781 46.0469
Q14.4062 43.6094 13.625 38.8125
L8.98438 38.8125
L8.98438 49.3125
Q13.6719 51.3125 18.0938 52.3125
Q22.5156 53.3281 26.7031 53.3281
Q37.5 53.3281 43.1406 47.9688
Q48.7812 42.625 48.7812 32.4219" id="BitstreamVeraSerif-Roman-61"/>
      <path d="
M11.5312 5.17188
L11.5312 70.7969
L2.875 70.7969
L2.875 75.9844
L20.5156 75.9844
L20.5156 43.7969
Q23.1406 48.6875 27.2188 51
Q31.2969 53.3281 37.3125 53.3281
Q46.875 53.3281 52.9219 45.75
Q58.9844 38.1875 58.9844 25.9844
Q58.9844 13.7656 52.9219 6.17188
Q46.875 -1.42188 37.3125 -1.42188
Q31.2969 -1.42188 27.2188 0.890625
Q23.1406 3.21875 20.5156 8.10938
L20.5156 0
L2.875 0
L2.875 5.17188
z

M20.5156 23.3906
Q20.5156 14.0156 24.0938 9.10938
Q27.6875 4.20312 34.5156 4.20312
Q41.4062 4.20312 44.9375 9.71875
Q48.4844 15.2344 48.4844 25.9844
Q48.4844 36.7656 44.9375 42.2344
Q41.4062 47.7031 34.5156 47.7031
Q27.6875 47.7031 24.0938 42.7656
Q20.5156 37.8438 20.5156 28.5156
z
" id="BitstreamVeraSerif-Roman-62"/>
      <path d="
M24.7031 0
L5.60938 46.6875
L-0.296875 46.6875
L-0.296875 51.9062
L23.5781 51.9062
L23.5781 46.6875
L15.2812 46.6875
L29.8906 10.9844
L44.4844 46.6875
L36.7188 46.6875
L36.7188 51.9062
L56.2031 51.9062
L56.2031 46.6875
L50.3906 46.6875
L31.2969 0
z
" id="BitstreamVeraSerif-Roman-76"/>
      <path id="BitstreamVeraSerif-Roman-20"/>
      <path d="
M51.4219 15.5781
Q49.5156 7.28125 44.0938 2.92188
Q38.6719 -1.42188 30.0781 -1.42188
Q18.75 -1.42188 11.8594 6.07812
Q4.98438 13.5781 4.98438 25.9844
Q4.98438 38.4219 11.8594 45.875
Q18.75 53.3281 30.0781 53.3281
Q35.0156 53.3281 39.8906 52.1719
Q44.7812 51.0312 49.7031 48.6875
L49.7031 35.4062
L44.4844 35.4062
Q43.4531 42.2344 40.0156 45.3594
Q36.5781 48.4844 30.1719 48.4844
Q22.9062 48.4844 19.1875 42.8438
Q15.4844 37.2031 15.4844 25.9844
Q15.4844 14.75 19.1719 9.07812
Q22.8594 3.42188 30.1719 3.42188
Q35.9844 3.42188 39.4531 6.4375
Q42.9219 9.46875 44.1875 15.5781
z
" id="BitstreamVeraSerif-Roman-63"/>
      <path d="
M9.71875 68.0156
Q9.71875 70.2656 11.3438 71.9219
Q12.9844 73.5781 15.2812 73.5781
Q17.5312 73.5781 19.1562 71.9219
Q20.7969 70.2656 20.7969 68.0156
Q20.7969 65.7188 19.1875 64.1094
Q17.5781 62.5 15.2812 62.5
Q12.9844 62.5 11.3438 64.1094
Q9.71875 65.7188 9.71875 68.0156
M21.1875 5.17188
L29.6875 5.17188
L29.6875 0
L3.60938 0
L3.60938 5.17188
L12.2031 5.17188
L12.2031 46.6875
L3.60938 46.6875
L3.60938 51.9062
L21.1875 51.9062
z
" id="BitstreamVeraSerif-Roman-69"/>
      <path d="
M4.10938 0
L4.10938 5.17188
L12.2031 5.17188
L12.2031 46.6875
L3.60938 46.6875
L3.60938 51.9062
L21.1875 51.9062
L21.1875 42.6719
Q23.6875 47.9531 27.6562 50.6406
Q31.6406 53.3281 36.9219 53.3281
Q45.5156 53.3281 49.5625 48.3906
Q53.6094 43.4531 53.6094 33.0156
L53.6094 5.17188
L61.625 5.17188
L61.625 0
L36.8125 0
L36.8125 5.17188
L44.5781 5.17188
L44.5781 30.1719
Q44.5781 39.7031 42.2344 43.2344
Q39.8906 46.7812 33.9844 46.7812
Q27.7344 46.7812 24.4531 42.2031
Q21.1875 37.6406 21.1875 28.9062
L21.1875 5.17188
L29 5.17188
L29 0
z
" id="BitstreamVeraSerif-Roman-6e"/>
      <path d="
M30.0781 3.42188
Q37.3125 3.42188 40.9844 9.125
Q44.6719 14.8438 44.6719 25.9844
Q44.6719 37.1094 40.9844 42.7969
Q37.3125 48.4844 30.0781 48.4844
Q22.8594 48.4844 19.1719 42.7969
Q15.4844 37.1094 15.4844 25.9844
Q15.4844 14.8438 19.1875 9.125
Q22.9062 3.42188 30.0781 3.42188
M30.0781 -1.42188
Q18.75 -1.42188 11.8594 6.07812
Q4.98438 13.5781 4.98438 25.9844
Q4.98438 38.375 11.8438 45.8438
Q18.7031 53.3281 30.0781 53.3281
Q41.4531 53.3281 48.3125 45.8438
Q55.1719 38.375 55.1719 25.9844
Q55.1719 13.5781 48.3125 6.07812
Q41.4531 -1.42188 30.0781 -1.42188" id="BitstreamVeraSerif-Roman-6f"/>
      <path d="
M20.5156 5.17188
L29 5.17188
L29 0
L2.875 0
L2.875 5.17188
L11.5312 5.17188
L11.5312 70.7969
L2.875 70.7969
L2.875 75.9844
L20.5156 75.9844
z
" id="BitstreamVeraSerif-Roman-6c"/>
      <path d="
M24.7031 37.1094
L37.5938 37.1094
Q44.875 37.1094 48.6719 41.0312
Q52.4844 44.9688 52.4844 52.3906
Q52.4844 59.8594 48.6719 63.7656
Q44.875 67.6719 37.5938 67.6719
L24.7031 67.6719
z

M5.51562 0
L5.51562 5.17188
L14.7969 5.17188
L14.7969 67.6719
L5.51562 67.6719
L5.51562 72.9062
L39.9844 72.9062
Q50.9219 72.9062 57.3125 67.3594
Q63.7188 61.8125 63.7188 52.3906
Q63.7188 43.0156 57.3125 37.4531
Q50.9219 31.8906 39.9844 31.8906
L24.7031 31.8906
L24.7031 5.17188
L35.9844 5.17188
L35.9844 0
z
" id="BitstreamVeraSerif-Roman-50"/>
      <path d="
M47.9062 36.1875
Q51.3125 35.25 53.7812 33.0312
Q56.25 30.8125 58.2031 26.8125
L68.7969 5.17188
L77.6875 5.17188
L77.6875 0
L60.5 0
L49.125 23.1875
Q45.8438 29.9375 43.1094 31.9062
Q40.375 33.8906 35.5938 33.8906
L24.7031 33.8906
L24.7031 5.17188
L35.0156 5.17188
L35.0156 0
L5.51562 0
L5.51562 5.17188
L14.7969 5.17188
L14.7969 67.6719
L5.51562 67.6719
L5.51562 72.9062
L42.4844 72.9062
Q53.125 72.9062 58.9062 67.8281
Q64.7031 62.75 64.7031 53.4219
Q64.7031 45.9062 60.4688 41.5781
Q56.25 37.25 47.9062 36.1875
M24.7031 39.1094
L39.1094 39.1094
Q46.4844 39.1094 50 42.5938
Q53.5156 46.0938 53.5156 53.4219
Q53.5156 60.75 50 64.2031
Q46.4844 67.6719 39.1094 67.6719
L24.7031 67.6719
z
" id="BitstreamVeraSerif-Roman-52"/>
      <path d="
M47.7969 52
L47.7969 39.0156
L42.625 39.0156
Q42.3906 42.875 40.4844 44.7812
Q38.5781 46.6875 34.9062 46.6875
Q28.2656 46.6875 24.7188 42.0938
Q21.1875 37.5 21.1875 28.9062
L21.1875 5.17188
L31.5938 5.17188
L31.5938 0
L4.10938 0
L4.10938 5.17188
L12.2031 5.17188
L12.2031 46.7812
L3.60938 46.7812
L3.60938 51.9062
L21.1875 51.9062
L21.1875 42.6719
Q23.8281 48.0938 27.9688 50.7031
Q32.125 53.3281 38.0938 53.3281
Q40.2812 53.3281 42.7031 52.9844
Q45.125 52.6406 47.7969 52" id="BitstreamVeraSerif-Roman-72"/>
     </defs>
     <g transform="translate(35.765625 302.46375)scale(0.24 -0.24)">
      <use xlink:href="#BitstreamVeraSerif-Roman-52"/>
      <use x="75.29296875" xlink:href="#BitstreamVeraSerif-Roman-65"/>
      <use x="134.47265625" xlink:href="#BitstreamVeraSerif-Roman-6c"/>
      <use x="166.455078125" xlink:href="#BitstreamVeraSerif-Roman-61"/>
      <use x="226.07421875" xlink:href="#BitstreamVeraSerif-Roman-74"/>
      <use x="266.259765625" xlink:href="#BitstreamVeraSerif-Roman-69"/>
      <use x="298.2421875" xlink:href="#BitstreamVeraSerif-Roman-76"/>
      <use x="354.736328125" xlink:href="#BitstreamVeraSerif-Roman-65"/>
      <use x="413.916015625" xlink:href="#BitstreamVeraSerif-Roman-20"/>
      <use x="445.703125" xlink:href="#BitstreamVeraSerif-Roman-63"/>
      <use x="501.708984375" xlink:href="#BitstreamVeraSerif-Roman-6f"/>
      <use x="561.9140625" xlink:href="#BitstreamVeraSerif-Roman-6e"/>
      <use x="626.318359375" xlink:href="#BitstreamVeraSerif-Roman-63"/>
      <use x="682.32421875" xlink:href="#BitstreamVeraSerif-Roman-65"/>
      <use x="741.50390625" xlink:href="#BitstreamVeraSerif-Roman-6e"/>
      <use x="805.908203125" xlink:href="#BitstreamVeraSerif-Roman-74"/>
      <use x="846.09375" xlink:href="#BitstreamVeraSerif-Roman-72"/>
      <use x="893.896484375" xlink:href="#BitstreamVeraSerif-Roman-61"/>
      <use x="953.515625" xlink:href="#BitstreamVeraSerif-Roman-74"/>
      <use x="993.701171875" xlink:href="#BitstreamVeraSerif-Roman-69"/>
      <use x="1025.68359375" xlink:href="#BitstreamVeraSerif-Roman-6f"/>
      <use x="1085.88867188" xlink:href="#BitstreamVeraSerif-Roman-6e"/>
      <use x="1150.29296875" xlink:href="#BitstreamVeraSerif-Roman-20"/>
      <use x="1182.08007812" xlink:href="#BitstreamVeraSerif-Roman-6f"/>
      <use x="1242.28515625" xlink:href="#BitstreamVeraSerif-Roman-66"/>
      <use x="1279.296875" xlink:href="#BitstreamVeraSerif-Roman-20"/>
      <use x="1311.08398438" xlink:href="#BitstreamVeraSerif-Roman-50"/>
      <use x="1373.86914062" xlink:href="#BitstreamVeraSerif-Roman-61"/>
      <use x="1433.48828125" xlink:href="#BitstreamVeraSerif-Roman-62"/>
      <use x="1497.50195312" xlink:href="#BitstreamVeraSerif-Roman-31"/>
     </g>
    </g>
   </g>
   <g id="matplotlib.axis_2">
    <g id="ytick_1">
     <g id="line2d_8">
      <defs>
       <path d="
M0 0
L4 0" id="m728421d6d4" style="stroke:#000000;stroke-width:0.5;"/>
      </defs>
      <g>
       <use style="stroke:#000000;stroke-width:0.5;" x="54.0" xlink:href="#m728421d6d4" y="252.0"/>
      </g>
     </g>
     <g id="text_8">
      <!-- −1.0 -->
      <defs>
       <path d="
M10.5938 35.2969
L73.1875 35.2969
L73.1875 27.3906
L10.5938 27.3906
z
" id="BitstreamVeraSerif-Roman-2212"/>
       <path d="
M9.42188 5.07812
Q9.42188 7.8125 11.2812 9.71875
Q13.1406 11.625 15.9219 11.625
Q18.6094 11.625 20.5 9.71875
Q22.4062 7.8125 22.4062 5.07812
Q22.4062 2.39062 20.5 0.484375
Q18.6094 -1.42188 15.9219 -1.42188
Q13.1406 -1.42188 11.2812 0.453125
Q9.42188 2.34375 9.42188 5.07812" id="BitstreamVeraSerif-Roman-2e"/>
      </defs>
      <g transform="translate(-4.1425 258.6225)scale(0.24 -0.24)">
       <use xlink:href="#BitstreamVeraSerif-Roman-2212"/>
       <use x="83.7890625" xlink:href="#BitstreamVeraSerif-Roman-31"/>
       <use x="147.412109375" xlink:href="#BitstreamVeraSerif-Roman-2e"/>
       <use x="179.19921875" xlink:href="#BitstreamVeraSerif-Roman-30"/>
      </g>
     </g>
    </g>
    <g id="ytick_2">
     <g id="line2d_9">
      <g>
       <use style="stroke:#000000;stroke-width:0.5;" x="54.0" xlink:href="#m728421d6d4" y="196.2"/>
      </g>
     </g>
     <g id="text_9">
      <!-- −0.5 -->
      <g transform="translate(-3.88375 202.8225)scale(0.24 -0.24)">
       <use xlink:href="#BitstreamVeraSerif-Roman-2212"/>
       <use x="83.7890625" xlink:href="#BitstreamVeraSerif-Roman-30"/>
       <use x="147.412109375" xlink:href="#BitstreamVeraSerif-Roman-2e"/>
       <use x="179.19921875" xlink:href="#BitstreamVeraSerif-Roman-35"/>
      </g>
     </g>
    </g>
    <g id="ytick_3">
     <g id="line2d_10">
      <g>
       <use style="stroke:#000000;stroke-width:0.5;" x="54.0" xlink:href="#m728421d6d4" y="140.4"/>
      </g>
     </g>
     <g id="text_10">
      <!-- 0.0 -->
      <g transform="translate(15.00875 147.0225)scale(0.24 -0.24)">
       <use xlink:href="#BitstreamVeraSerif-Roman-30"/>
       <use x="63.623046875" xlink:href="#BitstreamVeraSerif-Roman-2e"/>
       <use x="95.41015625" xlink:href="#BitstreamVeraSerif-Roman-30"/>
      </g>
     </g>
    </g>
    <g id="ytick_4">
     <g id="line2d_11">
      <g>
       <use style="stroke:#000000;stroke-width:0.5;" x="54.0" xlink:href="#m728421d6d4" y="84.6"/>
      </g>
     </g>
     <g id="text_11">
      <!-- 0.5 -->
      <g transform="translate(15.2675 91.2225)scale(0.24 -0.24)">
       <use xlink:href="#BitstreamVeraSerif-Roman-30"/>
       <use x="63.623046875" xlink:href="#BitstreamVeraSerif-Roman-2e"/>
       <use x="95.41015625" xlink:href="#BitstreamVeraSerif-Roman-35"/>
      </g>
     </g>
    </g>
    <g id="ytick_5">
     <g id="line2d_12">
      <g>
       <use style="stroke:#000000;stroke-width:0.5;" x="54.0" xlink:href="#m728421d6d4" y="28.8"/>
      </g>
     </g>
     <g id="text_12">
      <!-- 1.0 -->
      <g transform="translate(16.355 35.4225)scale(0.24 -0.24)">
       <use xlink:href="#BitstreamVeraSerif-Roman-31"/>
       <use x="63.623046875" xlink:href="#BitstreamVeraSerif-Roman-2e"/>
       <use x="95.41015625" xlink:href="#BitstreamVeraSerif-Roman-30"/>
      </g>
     </g>
    </g>
    <g id="text_13">
     <!-- Predicted HSP104  -->
     <defs>
      <path d="
M52.4844 5.17188
L61.0781 5.17188
L61.0781 0
L43.5 0
L43.5 8.10938
Q40.875 3.21875 36.7969 0.890625
Q32.7188 -1.42188 26.7031 -1.42188
Q17.1406 -1.42188 11.0625 6.17188
Q4.98438 13.7656 4.98438 25.9844
Q4.98438 38.1875 11.0312 45.75
Q17.0938 53.3281 26.7031 53.3281
Q32.7188 53.3281 36.7969 51
Q40.875 48.6875 43.5 43.7969
L43.5 70.7969
L35.0156 70.7969
L35.0156 75.9844
L52.4844 75.9844
z

M43.5 23.3906
L43.5 28.5156
Q43.5 37.8438 39.9062 42.7656
Q36.3281 47.7031 29.5 47.7031
Q22.5625 47.7031 19.0156 42.2344
Q15.4844 36.7656 15.4844 25.9844
Q15.4844 15.2344 19.0156 9.71875
Q22.5625 4.20312 29.5 4.20312
Q36.3281 4.20312 39.9062 9.10938
Q43.5 14.0156 43.5 23.3906" id="BitstreamVeraSerif-Roman-64"/>
      <path d="
M9.28125 3.51562
L9.28125 20.125
L14.8906 20.0625
Q15.1406 11.7656 19.7031 7.78125
Q24.2656 3.8125 33.5938 3.8125
Q42.2812 3.8125 46.8438 7.25
Q51.4219 10.6875 51.4219 17.2812
Q51.4219 22.5625 48.6562 25.3906
Q45.9062 28.2188 37.0156 30.9062
L27.3906 33.7969
Q16.9375 36.9688 12.6719 41.7031
Q8.40625 46.4375 8.40625 54.6875
Q8.40625 63.9688 14.9844 69.0938
Q21.5781 74.2188 33.5 74.2188
Q38.5781 74.2188 44.625 73.1094
Q50.6875 72.0156 57.5156 69.9219
L57.5156 54.3906
L52 54.3906
Q51.1719 62.1094 46.8438 65.5469
Q42.5312 69 33.6875 69
Q25.9844 69 21.9531 65.8438
Q17.9219 62.7031 17.9219 56.6875
Q17.9219 51.4688 20.9375 48.4844
Q23.9688 45.5156 33.7969 42.5781
L42.8281 39.8906
Q52.7344 36.9219 56.9531 32.2969
Q61.1875 27.6875 61.1875 19.9219
Q61.1875 9.32812 54.3906 3.95312
Q47.6094 -1.42188 34.1875 -1.42188
Q28.1719 -1.42188 21.9375 -0.1875
Q15.7188 1.03125 9.28125 3.51562" id="BitstreamVeraSerif-Roman-53"/>
      <path d="
M5.51562 0
L5.51562 5.17188
L14.7969 5.17188
L14.7969 67.6719
L5.51562 67.6719
L5.51562 72.9062
L33.9844 72.9062
L33.9844 67.6719
L24.7031 67.6719
L24.7031 42.4844
L62.5 42.4844
L62.5 67.6719
L53.2188 67.6719
L53.2188 72.9062
L81.6875 72.9062
L81.6875 67.6719
L72.4062 67.6719
L72.4062 5.17188
L81.6875 5.17188
L81.6875 0
L53.2188 0
L53.2188 5.17188
L62.5 5.17188
L62.5 36.5312
L24.7031 36.5312
L24.7031 5.17188
L33.9844 5.17188
L33.9844 0
z
" id="BitstreamVeraSerif-Roman-48"/>
     </defs>
     <g transform="translate(-41.34975 252.031875)rotate(-90.0)scale(0.24 -0.24)">
      <use xlink:href="#BitstreamVeraSerif-Roman-50"/>
      <use x="67.28515625" xlink:href="#BitstreamVeraSerif-Roman-72"/>
      <use x="115.087890625" xlink:href="#BitstreamVeraSerif-Roman-65"/>
      <use x="174.267578125" xlink:href="#BitstreamVeraSerif-Roman-64"/>
      <use x="238.28125" xlink:href="#BitstreamVeraSerif-Roman-69"/>
      <use x="270.263671875" xlink:href="#BitstreamVeraSerif-Roman-63"/>
      <use x="326.26953125" xlink:href="#BitstreamVeraSerif-Roman-74"/>
      <use x="366.455078125" xlink:href="#BitstreamVeraSerif-Roman-65"/>
      <use x="425.634765625" xlink:href="#BitstreamVeraSerif-Roman-64"/>
      <use x="489.6484375" xlink:href="#BitstreamVeraSerif-Roman-20"/>
      <use x="521.435546875" xlink:href="#BitstreamVeraSerif-Roman-48"/>
      <use x="608.642578125" xlink:href="#BitstreamVeraSerif-Roman-53"/>
      <use x="677.1484375" xlink:href="#BitstreamVeraSerif-Roman-50"/>
      <use x="744.43359375" xlink:href="#BitstreamVeraSerif-Roman-31"/>
      <use x="808.056640625" xlink:href="#BitstreamVeraSerif-Roman-30"/>
      <use x="871.6796875" xlink:href="#BitstreamVeraSerif-Roman-34"/>
      <use x="935.302734375" xlink:href="#BitstreamVeraSerif-Roman-20"/>
     </g>
     <!--  fold-change -->
     <defs>
      <path d="
M4.10938 0
L4.10938 5.17188
L12.2031 5.17188
L12.2031 70.7969
L3.60938 70.7969
L3.60938 75.9844
L21.1875 75.9844
L21.1875 42.6719
Q23.6875 47.9531 27.6562 50.6406
Q31.6406 53.3281 36.9219 53.3281
Q45.5156 53.3281 49.5625 48.3906
Q53.6094 43.4531 53.6094 33.0156
L53.6094 5.17188
L61.625 5.17188
L61.625 0
L36.8125 0
L36.8125 5.17188
L44.5781 5.17188
L44.5781 30.1719
Q44.5781 39.7031 42.25 43.1875
Q39.9375 46.6875 33.9844 46.6875
Q27.7344 46.6875 24.4531 42.1406
Q21.1875 37.5938 21.1875 28.9062
L21.1875 5.17188
L29 5.17188
L29 0
z
" id="BitstreamVeraSerif-Roman-68"/>
      <path d="
M52.4844 46.6875
L52.4844 1.125
Q52.4844 -10.0625 46.3281 -16.1406
Q40.1875 -22.2188 28.8125 -22.2188
Q23.6875 -22.2188 19 -21.2812
Q14.3125 -20.3594 10.0156 -18.5
L10.0156 -7.625
L14.7031 -7.625
Q15.5781 -12.7031 18.8438 -15.0469
Q22.125 -17.3906 28.2188 -17.3906
Q36.1406 -17.3906 39.8125 -12.9219
Q43.5 -8.45312 43.5 1.125
L43.5 8.10938
Q40.875 3.21875 36.7969 0.890625
Q32.7188 -1.42188 26.7031 -1.42188
Q17.1406 -1.42188 11.0625 6.17188
Q4.98438 13.7656 4.98438 25.9844
Q4.98438 38.1875 11.0312 45.75
Q17.0938 53.3281 26.7031 53.3281
Q32.7188 53.3281 36.7969 51
Q40.875 48.6875 43.5 43.7969
L43.5 51.9062
L61.0781 51.9062
L61.0781 46.6875
z

M43.5 28.5156
Q43.5 37.8438 39.9062 42.7656
Q36.3281 47.7031 29.5 47.7031
Q22.5625 47.7031 19.0156 42.2344
Q15.4844 36.7656 15.4844 25.9844
Q15.4844 15.2344 19.0156 9.71875
Q22.5625 4.20312 29.5 4.20312
Q36.3281 4.20312 39.9062 9.10938
Q43.5 14.0156 43.5 23.3906
z
" id="BitstreamVeraSerif-Roman-67"/>
      <path d="
M4.39062 30.6094
L29.3906 30.6094
L29.3906 23
L4.39062 23
z
" id="BitstreamVeraSerif-Roman-2d"/>
     </defs>
     <g transform="translate(-14.475 214.974375)rotate(-90.0)scale(0.24 -0.24)">
      <use xlink:href="#BitstreamVeraSerif-Roman-20"/>
      <use x="31.787109375" xlink:href="#BitstreamVeraSerif-Roman-66"/>
      <use x="68.798828125" xlink:href="#BitstreamVeraSerif-Roman-6f"/>
      <use x="129.00390625" xlink:href="#BitstreamVeraSerif-Roman-6c"/>
      <use x="160.986328125" xlink:href="#BitstreamVeraSerif-Roman-64"/>
      <use x="225.0" xlink:href="#BitstreamVeraSerif-Roman-2d"/>
      <use x="258.7890625" xlink:href="#BitstreamVeraSerif-Roman-63"/>
      <use x="314.794921875" xlink:href="#BitstreamVeraSerif-Roman-68"/>
      <use x="379.19921875" xlink:href="#BitstreamVeraSerif-Roman-61"/>
      <use x="438.818359375" xlink:href="#BitstreamVeraSerif-Roman-6e"/>
      <use x="503.22265625" xlink:href="#BitstreamVeraSerif-Roman-67"/>
      <use x="567.236328125" xlink:href="#BitstreamVeraSerif-Roman-65"/>
     </g>
    </g>
   </g>
  </g>
 </g>
 <defs>
  <clipPath id="p124b8dd147">
   <rect height="223.2" width="334.8" x="54.0" y="28.8"/>
  </clipPath>
 </defs>
</svg>
